<svg width="257" height="74.501" viewBox="0 0 257 74.501" xmlns="http://www.w3.org/2000/svg"><g id="svgGroup" stroke-linecap="round" fill-rule="evenodd" font-size="9pt" stroke="#000" stroke-width="0.25mm" fill="#000" style="stroke:#000;stroke-width:0.25mm;fill:#000"><path d="M 0 64.6 L 1.4 63.3 A 20.285 20.285 0 0 0 5.142 66.693 Q 7.63 68.466 10.95 69.9 A 33.418 33.418 0 0 0 23.14 72.576 A 38.701 38.701 0 0 0 24.5 72.6 A 45.533 45.533 0 0 0 29.4 72.352 Q 31.925 72.078 34.054 71.502 A 21.262 21.262 0 0 0 36.95 70.5 A 19.886 19.886 0 0 0 40.478 68.554 Q 42.684 67.008 44.062 64.981 A 12.579 12.579 0 0 0 44.15 64.85 Q 46.5 61.3 46.5 57 A 16.993 16.993 0 0 0 46.19 53.658 Q 45.638 50.904 44.1 48.95 A 15.492 15.492 0 0 0 39.6 45.106 A 19.259 19.259 0 0 0 37.7 44.15 A 50.983 50.983 0 0 0 31.588 41.944 A 59.667 59.667 0 0 0 29 41.25 Q 24.3 40.1 19.55 38.9 Q 14.8 37.7 10.8 35.75 A 17.095 17.095 0 0 1 6.056 32.383 A 15.872 15.872 0 0 1 4.4 30.4 A 12.352 12.352 0 0 1 2.563 26.335 Q 2.123 24.639 2.027 22.642 A 23.73 23.73 0 0 1 2 21.5 Q 2 16.9 4.45 12.9 Q 6.9 8.9 12.05 6.4 A 22.229 22.229 0 0 1 16.738 4.781 Q 19.107 4.231 21.895 4.024 A 47.459 47.459 0 0 1 25.4 3.9 Q 31 3.9 36.45 5.65 Q 41.9 7.4 45.7 10.3 L 44.6 11.9 Q 40.4 8.8 35.3 7.3 Q 30.2 5.8 25.5 5.8 A 40.874 40.874 0 0 0 20.401 6.099 Q 17.844 6.421 15.69 7.09 A 20.392 20.392 0 0 0 13.4 7.95 Q 8.734 10.04 6.43 13.453 A 12.541 12.541 0 0 0 6.3 13.65 Q 4 17.2 4 21.6 A 17.585 17.585 0 0 0 4.303 24.967 Q 4.69 26.948 5.569 28.508 A 9.743 9.743 0 0 0 6.4 29.75 Q 8.8 32.8 12.8 34.55 A 50.078 50.078 0 0 0 18.654 36.673 A 59.466 59.466 0 0 0 21.55 37.45 Q 26.3 38.6 31 39.85 Q 35.7 41.1 39.7 43.05 A 17.832 17.832 0 0 1 44.075 46.015 A 15.875 15.875 0 0 1 46.1 48.3 A 11.809 11.809 0 0 1 47.937 52.261 Q 48.359 53.854 48.465 55.723 A 22.651 22.651 0 0 1 48.5 57 Q 48.5 61.6 46 65.6 A 15.349 15.349 0 0 1 42.077 69.779 Q 40.377 71.043 38.208 72.046 A 27.941 27.941 0 0 1 38.2 72.05 Q 32.9 74.5 24.6 74.5 Q 17 74.5 10.25 71.7 A 33.754 33.754 0 0 1 5.645 69.389 Q 2.188 67.288 0 64.6 Z M 110.2 43.7 L 110.2 74.2 L 108.2 74.2 L 108.2 43.7 A 30.141 30.141 0 0 0 107.721 38.149 Q 107.129 34.993 105.804 32.524 A 14.984 14.984 0 0 0 103.3 29.1 A 16.061 16.061 0 0 0 95.479 24.76 Q 92.797 24.1 89.6 24.1 A 28.251 28.251 0 0 0 84.014 24.626 A 20.8 20.8 0 0 0 77.9 26.85 Q 73 29.6 70.4 34.55 Q 67.8 39.5 67.8 46.1 L 67.8 74.2 L 65.8 74.2 L 65.8 0 L 67.8 0 L 67.8 37.2 L 67.6 36.9 Q 69.9 30.1 75.5 26.15 A 21.002 21.002 0 0 1 83.365 22.803 A 29.671 29.671 0 0 1 89.5 22.2 A 28.007 28.007 0 0 1 94.755 22.669 A 20.204 20.204 0 0 1 100.5 24.65 Q 105.1 27.1 107.65 31.9 Q 109.961 36.25 110.178 42.407 A 36.775 36.775 0 0 1 110.2 43.7 Z M 234.4 43.7 L 234.4 74.2 L 232.4 74.2 L 232.4 43.7 A 30.141 30.141 0 0 0 231.921 38.149 Q 231.329 34.993 230.004 32.524 A 14.984 14.984 0 0 0 227.5 29.1 A 16.061 16.061 0 0 0 219.679 24.76 Q 216.997 24.1 213.8 24.1 A 28.251 28.251 0 0 0 208.214 24.626 A 20.8 20.8 0 0 0 202.1 26.85 Q 197.2 29.6 194.6 34.55 Q 192 39.5 192 46.1 L 192 74.2 L 190 74.2 L 190 0 L 192 0 L 192 37.2 L 191.8 36.9 Q 194.1 30.1 199.7 26.15 A 21.002 21.002 0 0 1 207.565 22.803 A 29.671 29.671 0 0 1 213.7 22.2 A 28.007 28.007 0 0 1 218.955 22.669 A 20.204 20.204 0 0 1 224.7 24.65 Q 229.3 27.1 231.85 31.9 Q 234.161 36.25 234.378 42.407 A 36.775 36.775 0 0 1 234.4 43.7 Z M 146 46.1 L 166.7 46.1 L 166.7 48 L 145.9 48 A 36.585 36.585 0 0 0 141.581 48.236 Q 136.104 48.89 133.35 51.35 A 10.865 10.865 0 0 0 129.615 59.257 A 13.958 13.958 0 0 0 129.6 59.9 A 12.598 12.598 0 0 0 130.358 64.357 A 11.072 11.072 0 0 0 133.9 69.15 Q 137.487 72.028 143.44 72.505 A 30.804 30.804 0 0 0 145.9 72.6 A 26.775 26.775 0 0 0 151.304 72.084 Q 155.276 71.266 158.25 69.15 A 20.082 20.082 0 0 0 164.191 62.394 A 25.837 25.837 0 0 0 165.6 59.4 L 166.6 60.7 Q 164.5 66.9 159.25 70.7 A 19.332 19.332 0 0 1 152.065 73.861 Q 149.4 74.46 146.313 74.498 A 34.068 34.068 0 0 1 145.9 74.5 A 31.314 31.314 0 0 1 141.468 74.203 Q 139.098 73.864 137.094 73.137 A 17.864 17.864 0 0 1 136 72.7 A 15.658 15.658 0 0 1 132.486 70.604 A 12.745 12.745 0 0 1 129.75 67.6 Q 127.6 64.3 127.6 60 Q 127.6 56.3 129.35 53.15 Q 131.1 50 135.1 48.05 A 16.585 16.585 0 0 1 138.508 46.862 Q 140.197 46.457 142.206 46.267 A 40.455 40.455 0 0 1 146 46.1 Z M 167.6 74.2 L 165.6 74.2 L 165.6 61.9 L 165.6 60.2 L 165.6 40.4 A 24.859 24.859 0 0 0 165.19 35.728 Q 164.686 33.097 163.562 31.057 A 12.159 12.159 0 0 0 161.4 28.2 A 13.465 13.465 0 0 0 155.865 25.001 Q 153.77 24.353 151.243 24.171 A 28.432 28.432 0 0 0 149.2 24.1 Q 143.4 24.1 138.6 26.1 A 28.705 28.705 0 0 0 133.147 29.069 A 24.577 24.577 0 0 0 130.4 31.3 L 129 29.9 A 26.626 26.626 0 0 1 135.374 25.476 A 32.263 32.263 0 0 1 138 24.3 Q 143.3 22.2 149.1 22.2 A 28.17 28.17 0 0 1 154.43 22.672 Q 159.621 23.673 162.85 26.8 A 14.636 14.636 0 0 1 166.625 33.117 Q 167.6 36.267 167.6 40.3 L 167.6 74.2 Z M 252.907 73.972 A 2.381 2.381 0 0 0 254.4 74.5 Q 255.5 74.5 256.25 73.7 Q 257 72.9 257 71.9 A 3.201 3.201 0 0 0 257 71.866 A 2.508 2.508 0 0 0 256.25 70.05 A 2.52 2.52 0 0 0 255.441 69.499 A 2.659 2.659 0 0 0 254.4 69.3 A 2.442 2.442 0 0 0 253.366 69.524 A 2.89 2.89 0 0 0 252.6 70.05 Q 251.8 70.8 251.8 71.9 A 2.319 2.319 0 0 0 252.082 73.017 A 2.949 2.949 0 0 0 252.6 73.7 A 3.272 3.272 0 0 0 252.907 73.972 Z" vector-effect="non-scaling-stroke"/></g></svg>